<?xml version="1.0" encoding="UTF-8" standalone="no"?>
<!-- Created with Inkscape (http://www.inkscape.org/) -->

<svg
   xmlns:dc="http://purl.org/dc/elements/1.1/"
   xmlns:cc="http://creativecommons.org/ns#"
   xmlns:rdf="http://www.w3.org/1999/02/22-rdf-syntax-ns#"
   xmlns:svg="http://www.w3.org/2000/svg"
   xmlns="http://www.w3.org/2000/svg"
   version="1.1"
   width="28"
   height="23.5"
   id="svg2">
  <defs
     id="defs4">
    <filter
       x="0"
       y="0"
       width="1"
       height="1"
       color-interpolation-filters="sRGB"
       id="filter3187">
      <feColorMatrix
         id="feColorMatrix3189"
         type="saturate"
         values="0" />
    </filter>
  </defs>
  <metadata
     id="metadata7">
    <rdf:RDF>
      <cc:Work
         rdf:about="">
        <dc:format>image/svg+xml</dc:format>
        <dc:type
           rdf:resource="http://purl.org/dc/dcmitype/StillImage" />
        <dc:title></dc:title>
      </cc:Work>
    </rdf:RDF>
  </metadata>
  <g
     transform="translate(-206.07569,-465.41044)"
     id="layer2">
    <path
       d="m 207.8326,486.4381 c 0.58001,-0.23404 1.52911,-0.23404 2.10912,0 0.58001,0.23403 0.10546,0.42551 -1.05456,0.42551 -1.16001,0 -1.63456,-0.19148 -1.05456,-0.42551 z m 22.55311,-0.26154 c 0.31687,-0.5127 -4.01416,-0.90812 -11.55035,-1.05456 l -12.05732,-0.23429 -0.26363,-3.67173 c -0.18475,-2.57308 0.16991,-4.15079 1.18532,-5.2728 l 1.44895,-1.60106 -1.44602,0 c -0.81071,0 -1.20132,-0.39593 -0.88907,-0.90116 0.30633,-0.49564 1.04076,-0.71551 1.63209,-0.4886 0.59132,0.22692 1.49389,-0.50648 2.0057,-1.62977 0.5118,-1.12329 1.34545,-2.04235 1.85255,-2.04235 0.50709,0 0.32541,0.59657 -0.40374,1.32573 -2.85791,2.85791 -1.66482,3.31859 8.27104,3.19359 5.27841,-0.0664 10.40365,-0.37672 11.38941,-0.68959 1.06315,-0.33743 1.79229,-0.20251 1.79229,0.33165 0,0.49528 -0.66437,0.91204 -1.47638,0.92615 l -1.47638,0.0256 1.47638,0.85991 1.47638,0.85992 0,5.44178 0,5.44179 -1.73709,0 c -0.95539,0 -1.50895,-0.36912 -1.23013,-0.82027 z m -4.14548,-4.33594 c 0.94269,-1.5253 -1.42725,-2.40992 -6.49327,-2.4237 -4.4611,-0.0122 -7.49032,1.38805 -6.07181,2.80656 0.95314,0.95314 11.9464,0.61817 12.56508,-0.38286 z m -13.55666,-4.12391 c -0.28677,-0.46401 -1.66032,-0.84365 -3.05234,-0.84365 -1.47246,0 -2.31288,0.35282 -2.00954,0.84365 0.28677,0.464 1.66032,0.84364 3.05234,0.84364 1.47247,0 2.31289,-0.35282 2.00954,-0.84364 z m 19.82571,0 c 0,-1.07455 -3.39914,-1.07455 -5.06188,0 l -1.26547,0.8178 3.16368,0.0129 c 1.74002,0.007 3.16367,-0.36672 3.16367,-0.83072 z m -4.13354,-6.99846 -1.1169,-1.85984 1.52044,1.4563 c 0.83625,0.80096 1.33885,1.63789 1.11691,1.85983 -0.22195,0.22195 -0.90615,-0.43338 -1.52045,-1.45629 z m -11.68484,-2.05259 c 1.74002,-0.18201 4.58733,-0.18201 6.32735,0 1.74003,0.18202 0.31637,0.33093 -3.16367,0.33093 -3.48005,0 -4.9037,-0.14891 -3.16368,-0.33093 z"
       id="path3241"
       style="fill:#000000" />
  </g>
</svg>
