<?xml version="1.0" encoding="UTF-8" standalone="no"?>
<!-- Created with Inkscape (http://www.inkscape.org/) -->

<svg
   xmlns:dc="http://purl.org/dc/elements/1.1/"
   xmlns:cc="http://creativecommons.org/ns#"
   xmlns:rdf="http://www.w3.org/1999/02/22-rdf-syntax-ns#"
   xmlns:svg="http://www.w3.org/2000/svg"
   xmlns="http://www.w3.org/2000/svg"
   version="1.1"
   width="100%"
   height="100%"
   viewBox="0 0 20 20"
   id="Emoji_sad"
   xml:space="preserve"><metadata
     id="metadata9"><rdf:RDF><cc:Work
         rdf:about=""><dc:format>image/svg+xml</dc:format><dc:type
           rdf:resource="http://purl.org/dc/dcmitype/StillImage" /><dc:title></dc:title></cc:Work></rdf:RDF></metadata><defs
     id="defs7" /><path
     d="M 10.001,0.4 C 4.698,0.4 0.4,4.698 0.4,10 c 0,5.303 4.298,9.601 9.601,9.601 5.301,0 9.6,-4.298 9.6,-9.601 -10e-4,-5.302 -4.3,-9.6 -9.6,-9.6 z M 10,17.599 c -4.197,0 -7.6,-3.402 -7.6,-7.6 0,-4.197 3.402,-7.6 7.6,-7.6 4.197,0 7.6,3.402 7.6,7.6 0,4.198 -3.403,7.6 -7.6,7.6 z M 12.501,9.75 c 0.828,0 1.5,-0.783 1.5,-1.75 0,-0.967 -0.672,-1.75 -1.5,-1.75 -0.828,0 -1.5,0.783 -1.5,1.75 0,0.967 0.671,1.75 1.5,1.75 z m -5,0 c 0.828,0 1.5,-0.783 1.5,-1.75 0,-0.967 -0.672,-1.75 -1.5,-1.75 -0.828,0 -1.5,0.783 -1.5,1.75 0,0.967 0.671,1.75 1.5,1.75 z m 2.501,1.5 c -3.424,0 -4.622,2.315 -4.672,2.414 -0.186,0.371 -0.035,0.821 0.335,1.007 0.108,0.053 0.222,0.079 0.335,0.079 0.275,0 0.54,-0.151 0.672,-0.414 0.008,-0.017 0.822,-1.586 3.33,-1.586 2.463,0 3.298,1.527 3.328,1.585 0.184,0.37 0.635,0.523 1.006,0.336 0.371,-0.184 0.521,-0.636 0.336,-1.006 -0.049,-0.099 -1.246,-2.415 -4.67,-2.415 z"
     id="path3" /></svg>