<?xml version="1.0" encoding="UTF-8" standalone="no"?>
<!-- Created with Inkscape (http://www.inkscape.org/) -->

<svg
   xmlns:dc="http://purl.org/dc/elements/1.1/"
   xmlns:cc="http://creativecommons.org/ns#"
   xmlns:rdf="http://www.w3.org/1999/02/22-rdf-syntax-ns#"
   xmlns:svg="http://www.w3.org/2000/svg"
   xmlns="http://www.w3.org/2000/svg"
   version="1.1"
   width="21.806751"
   height="26.831062"
   id="svg2">
  <defs
     id="defs4" />
  <metadata
     id="metadata7">
    <rdf:RDF>
      <cc:Work
         rdf:about="">
        <dc:format>image/svg+xml</dc:format>
        <dc:type
           rdf:resource="http://purl.org/dc/dcmitype/StillImage" />
        <dc:title></dc:title>
      </cc:Work>
    </rdf:RDF>
  </metadata>
  <g
     transform="translate(-208.71683,-464.02466)"
     id="layer2">
    <path
       d="m 214.68457,481.31311 c -2.33144,-5.24844 -4.23897,-9.95229 -4.23897,-10.453 0,-0.92019 6.23318,-2.99324 9,-2.99324 2.76681,0 9,2.07305 9,2.99324 0,1.35145 -8.39172,19.99561 -9,19.99561 -0.28714,0 -2.4296,-4.29418 -4.76103,-9.54261 z m 6.31488,0.45548 c 1.03052,-1.66742 -1.28721,-3.57951 -2.66672,-2.2 -1.15392,1.15392 -0.43172,3.28713 1.11287,3.28713 0.48508,0 1.18431,-0.48921 1.55385,-1.08713 z m 4,-7 c 1.03052,-1.66742 -1.28721,-3.57951 -2.66672,-2.2 -1.15392,1.15392 -0.43172,3.28713 1.11287,3.28713 0.48508,0 1.18431,-0.48921 1.55385,-1.08713 z m -8,-2 c 1.03052,-1.66742 -1.28721,-3.57951 -2.66672,-2.2 -1.15392,1.15392 -0.43172,3.28713 1.11287,3.28713 0.48508,0 1.18431,-0.48921 1.55385,-1.08713 z m -8.08081,-4.9565 c -2.2621,-3.66015 15.12519,-5.32852 20.5186,-1.96883 2.76701,1.72364 -0.20096,3.18405 -3.87089,1.90471 -3.18946,-1.11185 -11.00993,-0.80777 -14.2696,0.55484 -0.9104,0.38057 -1.97546,0.16079 -2.37811,-0.49072 z"
       id="path2996-5"
       style="fill:#000000" />
  </g>
</svg>
