<?xml version="1.0" encoding="UTF-8" standalone="no"?>
<!-- Created with Inkscape (http://www.inkscape.org/) -->

<svg
   xmlns:dc="http://purl.org/dc/elements/1.1/"
   xmlns:cc="http://creativecommons.org/ns#"
   xmlns:rdf="http://www.w3.org/1999/02/22-rdf-syntax-ns#"
   xmlns:svg="http://www.w3.org/2000/svg"
   xmlns="http://www.w3.org/2000/svg"
   version="1.1"
   width="15.993963"
   height="26.85129"
   id="svg2">
  <defs
     id="defs4" />
  <metadata
     id="metadata7">
    <rdf:RDF>
      <cc:Work
         rdf:about="">
        <dc:format>image/svg+xml</dc:format>
        <dc:type
           rdf:resource="http://purl.org/dc/dcmitype/StillImage" />
        <dc:title></dc:title>
      </cc:Work>
    </rdf:RDF>
  </metadata>
  <g
     transform="translate(-212.23932,-464.04892)"
     id="layer2">
    <path
       d="m 212.23996,490.08166 c 0.009,-0.43652 0.8588,-4.00808 1.88851,-7.93681 2.14317,-8.17703 2.27788,-9.52417 0.95241,-9.52417 -0.52383,0 -0.95241,1.07147 -0.95241,2.38104 0,1.30958 -0.45446,2.38105 -1.00992,2.38105 -0.58461,0 -0.88542,-1.50407 -0.71431,-3.57157 0.27108,-3.27524 0.60208,-3.64724 3.98953,-4.48374 3.39954,-0.83948 3.85782,-0.70666 5.75028,1.66673 1.16222,1.45757 3.00708,2.57891 4.24289,2.57891 3.11343,0 2.02064,2.3088 -1.27578,2.69541 -1.48562,0.17424 -3.02186,-0.23802 -3.44633,-0.92483 -1.46786,-2.37504 -2.20251,0.2295 -0.92122,3.26595 1.73311,4.10722 2.45737,12.10698 1.09611,12.10698 -0.57438,0 -1.04433,-1.09964 -1.04433,-2.44366 0,-2.75862 -1.54582,-6.1281 -2.8114,-6.1281 -0.46175,0 -1.43777,1.79471 -2.16895,3.98825 -1.15745,3.47233 -3.62126,6.19352 -3.57508,3.94856 z m 7.96493,-22.65367 c -0.66346,-1.72898 0.30021,-3.37907 1.97344,-3.37907 1.45686,0 2.34059,1.82356 1.73085,3.57157 -0.56908,1.63146 -3.05392,1.50234 -3.70429,-0.1925 z"
       id="path3155"
       style="fill:#000000" />
  </g>
</svg>
